<svg width="30" height="30" viewBox="0 0 30 30" fill="none" xmlns="http://www.w3.org/2000/svg">
<path d="M15 25V27.5" stroke="#0A1428" stroke-width="2" stroke-linecap="round" stroke-linejoin="round"/>
<path d="M15 2.5V5" stroke="#0A1428" stroke-width="2" stroke-linecap="round" stroke-linejoin="round"/>
<path d="M21.25 25V27.5" stroke="#0A1428" stroke-width="2" stroke-linecap="round" stroke-linejoin="round"/>
<path d="M21.25 2.5V5" stroke="#0A1428" stroke-width="2" stroke-linecap="round" stroke-linejoin="round"/>
<path d="M2.5 15H5" stroke="#0A1428" stroke-width="2" stroke-linecap="round" stroke-linejoin="round"/>
<path d="M2.5 21.25H5" stroke="#0A1428" stroke-width="2" stroke-linecap="round" stroke-linejoin="round"/>
<path d="M2.5 8.75H5" stroke="#0A1428" stroke-width="2" stroke-linecap="round" stroke-linejoin="round"/>
<path d="M25 15H27.5" stroke="#0A1428" stroke-width="2" stroke-linecap="round" stroke-linejoin="round"/>
<path d="M25 21.25H27.5" stroke="#0A1428" stroke-width="2" stroke-linecap="round" stroke-linejoin="round"/>
<path d="M25 8.75H27.5" stroke="#0A1428" stroke-width="2" stroke-linecap="round" stroke-linejoin="round"/>
<path d="M8.75 25V27.5" stroke="#0A1428" stroke-width="2" stroke-linecap="round" stroke-linejoin="round"/>
<path d="M8.75 2.5V5" stroke="#0A1428" stroke-width="2" stroke-linecap="round" stroke-linejoin="round"/>
<path d="M22.5 5H7.5C6.11929 5 5 6.11929 5 7.5V22.5C5 23.8807 6.11929 25 7.5 25H22.5C23.8807 25 25 23.8807 25 22.5V7.5C25 6.11929 23.8807 5 22.5 5Z" stroke="#0A1428" stroke-width="2" stroke-linecap="round" stroke-linejoin="round"/>
<path d="M18.75 10H11.25C10.5596 10 10 10.5596 10 11.25V18.75C10 19.4404 10.5596 20 11.25 20H18.75C19.4404 20 20 19.4404 20 18.75V11.25C20 10.5596 19.4404 10 18.75 10Z" stroke="#0A1428" stroke-width="2" stroke-linecap="round" stroke-linejoin="round"/>
</svg>
