<svg width="30" height="30" viewBox="0 0 30 30" fill="none" xmlns="http://www.w3.org/2000/svg">
<path d="M25 16.25C25 22.5 20.625 25.625 15.425 27.4375C15.1527 27.5297 14.8569 27.5253 14.5875 27.425C9.375 25.625 5 22.5 5 16.25V7.49995C5 7.16843 5.1317 6.85049 5.36612 6.61607C5.60054 6.38165 5.91848 6.24995 6.25 6.24995C8.75 6.24995 11.875 4.74995 14.05 2.84995C14.3148 2.6237 14.6517 2.49939 15 2.49939C15.3483 2.49939 15.6852 2.6237 15.95 2.84995C18.1375 4.76245 21.25 6.24995 23.75 6.24995C24.0815 6.24995 24.3995 6.38165 24.6339 6.61607C24.8683 6.85049 25 7.16843 25 7.49995V16.25Z" stroke="#0A1428" stroke-width="2" stroke-linecap="round" stroke-linejoin="round"/>
<path d="M11.25 15L13.75 17.5L18.75 12.5" stroke="#0A1428" stroke-width="2" stroke-linecap="round" stroke-linejoin="round"/>
</svg>
